<mxfile host="app.diagrams.net" modified="2022-03-27T16:00:45.106Z" agent="5.0 (Windows NT 10.0; Win64; x64) AppleWebKit/537.36 (KHTML, like Gecko) Chrome/99.0.4844.51 Safari/537.36 Edg/99.0.1150.39" etag="PWklPPQEcKfzRkMUg55r" version="17.1.3" type="github">
  <diagram id="C5RBs43oDa-KdzZeNtuy" name="Page-1">
    <mxGraphModel dx="1020" dy="1697" grid="1" gridSize="10" guides="1" tooltips="1" connect="1" arrows="1" fold="1" page="1" pageScale="1" pageWidth="827" pageHeight="1169" math="0" shadow="0">
      <root>
        <mxCell id="WIyWlLk6GJQsqaUBKTNV-0" />
        <mxCell id="WIyWlLk6GJQsqaUBKTNV-1" parent="WIyWlLk6GJQsqaUBKTNV-0" />
        <mxCell id="1snyJA8pV_e4G8mCg820-1" value="" style="edgeStyle=orthogonalEdgeStyle;rounded=0;orthogonalLoop=1;jettySize=auto;html=1;" edge="1" parent="WIyWlLk6GJQsqaUBKTNV-1" source="WIyWlLk6GJQsqaUBKTNV-3" target="1snyJA8pV_e4G8mCg820-0">
          <mxGeometry relative="1" as="geometry" />
        </mxCell>
        <mxCell id="1snyJA8pV_e4G8mCg820-5" value="" style="edgeStyle=orthogonalEdgeStyle;rounded=0;orthogonalLoop=1;jettySize=auto;html=1;" edge="1" parent="WIyWlLk6GJQsqaUBKTNV-1" source="WIyWlLk6GJQsqaUBKTNV-3" target="1snyJA8pV_e4G8mCg820-4">
          <mxGeometry relative="1" as="geometry" />
        </mxCell>
        <mxCell id="WIyWlLk6GJQsqaUBKTNV-3" value="getObject方法里使用sqlsession的getMapper，传入Class对象，和sqlSession（this）,和代理对象&lt;br&gt;原先的使用方法, sqlSession.getMapper(Class&amp;lt;T&amp;gt;).具体方法" style="rounded=1;whiteSpace=wrap;html=1;fontSize=12;glass=0;strokeWidth=1;shadow=0;" parent="WIyWlLk6GJQsqaUBKTNV-1" vertex="1">
          <mxGeometry x="140" y="40" width="270" height="140" as="geometry" />
        </mxCell>
        <mxCell id="1snyJA8pV_e4G8mCg820-3" value="" style="edgeStyle=orthogonalEdgeStyle;rounded=0;orthogonalLoop=1;jettySize=auto;html=1;" edge="1" parent="WIyWlLk6GJQsqaUBKTNV-1" source="1snyJA8pV_e4G8mCg820-0" target="1snyJA8pV_e4G8mCg820-2">
          <mxGeometry relative="1" as="geometry" />
        </mxCell>
        <mxCell id="1snyJA8pV_e4G8mCg820-0" value="通过sqlsession对象,和mapper接口,生成MapperProxy对象作为InvocationHandler,再通过JDK动态代理生成mapper接口的代理对象" style="rounded=1;whiteSpace=wrap;html=1;glass=0;strokeWidth=1;shadow=0;" vertex="1" parent="WIyWlLk6GJQsqaUBKTNV-1">
          <mxGeometry x="220" y="250" width="200" height="110" as="geometry" />
        </mxCell>
        <mxCell id="1snyJA8pV_e4G8mCg820-2" value="调用的代理对象的对应方法,最后在MapperProxy中的invoke方法,进行最后实际的调用" style="rounded=1;whiteSpace=wrap;html=1;glass=0;strokeWidth=1;shadow=0;" vertex="1" parent="WIyWlLk6GJQsqaUBKTNV-1">
          <mxGeometry x="230" y="440" width="180" height="105" as="geometry" />
        </mxCell>
        <mxCell id="1snyJA8pV_e4G8mCg820-7" value="" style="edgeStyle=orthogonalEdgeStyle;rounded=0;orthogonalLoop=1;jettySize=auto;html=1;" edge="1" parent="WIyWlLk6GJQsqaUBKTNV-1" source="1snyJA8pV_e4G8mCg820-4" target="1snyJA8pV_e4G8mCg820-6">
          <mxGeometry relative="1" as="geometry" />
        </mxCell>
        <mxCell id="1snyJA8pV_e4G8mCg820-4" value="MapperFactoryBean的getObject方法获取代理对象" style="rounded=1;whiteSpace=wrap;html=1;glass=0;strokeWidth=1;shadow=0;" vertex="1" parent="WIyWlLk6GJQsqaUBKTNV-1">
          <mxGeometry x="200" y="-55" width="120" height="60" as="geometry" />
        </mxCell>
        <mxCell id="1snyJA8pV_e4G8mCg820-6" value="spring使用接口不能直接注册成Bean,mybatis使用MapperFactoryBean的getObject方法获取mapper接口的代理对象作为spring的bean" style="whiteSpace=wrap;html=1;rounded=1;glass=0;strokeWidth=1;shadow=0;" vertex="1" parent="WIyWlLk6GJQsqaUBKTNV-1">
          <mxGeometry x="175" y="-230" width="170" height="105" as="geometry" />
        </mxCell>
      </root>
    </mxGraphModel>
  </diagram>
</mxfile>
